<mxfile host="app.diagrams.net" modified="2024-04-06T03:44:47.866Z" agent="Mozilla/5.0 (Windows NT 10.0; Win64; x64) AppleWebKit/537.36 (KHTML, like Gecko) Chrome/121.0.0.0 Safari/537.36 OPR/107.0.0.0" version="24.2.2" etag="QMUdczQKUyk6fpc0jDMD" type="github">
  <diagram name="Страница — 1" id="zmgtW91jnbgeaFKCYOSO">
    <mxGraphModel>
      <root>
        <mxCell id="0" />
        <mxCell id="1" parent="0" />
      </root>
    </mxGraphModel>
  </diagram>
</mxfile>
